<?xml version="1.0" encoding="UTF-8" standalone="no"?>
<!DOCTYPE svg PUBLIC "-//W3C//DTD SVG 1.1//EN"
 "http://www.w3.org/Graphics/SVG/1.1/DTD/svg11.dtd">
<!-- Generated by graphviz version 16.0.0 (20260814.1018)
 -->
<!-- Title: combined Pages: 1 -->
<svg width="324pt" height="218pt"
 viewBox="0.00 0.00 324.00 218.00" xmlns="http://www.w3.org/2000/svg" xmlns:xlink="http://www.w3.org/1999/xlink">
<g id="graph0" class="graph" transform="scale(1 1) rotate(0) translate(28.8 189)">
<title>combined</title>
<polygon fill="#ffffff" stroke="none" points="-28.8,28.8 -28.8,-189 294.8,-189 294.8,28.8 -28.8,28.8"/>
<!-- node_31381b218b1349a8a840b8604c60477e -->
<g id="node1" class="node">
<title>node_31381b218b1349a8a840b8604c60477e</title>
<path fill="#fef2f2" stroke="#ef4444" stroke-width="1.2" d="M117,-160.2C117,-160.2 12,-160.2 12,-160.2 6,-160.2 0,-154.2 0,-148.2 0,-148.2 0,-110.1 0,-110.1 0,-104.1 6,-98.1 12,-98.1 12,-98.1 117,-98.1 117,-98.1 123,-98.1 129,-104.1 129,-110.1 129,-110.1 129,-148.2 129,-148.2 129,-154.2 123,-160.2 117,-160.2"/>
<text xml:space="preserve" text-anchor="middle" x="64.5" y="-139.9" font-family="Inter,Helvetica Neue,Arial,sans-serif" font-size="10.00" fill="#991b1b">3138..477e</text>
<text xml:space="preserve" text-anchor="middle" x="64.5" y="-127.9" font-family="Inter,Helvetica Neue,Arial,sans-serif" font-size="10.00" fill="#991b1b">✗ buggy &#160;0.333</text>
<text xml:space="preserve" text-anchor="middle" x="64.5" y="-113.65" font-family="Inter,Helvetica Neue,Arial,sans-serif" font-size="10.00" fill="#991b1b">type&#45;check: ✓ (1 att.)</text>
</g>
<!-- node_ede623c5496e4c89af785942216953bc -->
<g id="node2" class="node">
<title>node_ede623c5496e4c89af785942216953bc</title>
<path fill="#f0fdf4" stroke="#22c55e" stroke-width="1.2" d="M117,-62.1C117,-62.1 12,-62.1 12,-62.1 6,-62.1 0,-56.1 0,-50.1 0,-50.1 0,-12 0,-12 0,-6 6,0 12,0 12,0 117,0 117,0 123,0 129,-6 129,-12 129,-12 129,-50.1 129,-50.1 129,-56.1 123,-62.1 117,-62.1"/>
<text xml:space="preserve" text-anchor="middle" x="64.5" y="-41.8" font-family="Inter,Helvetica Neue,Arial,sans-serif" font-size="10.00" fill="#166534">ede6..53bc</text>
<text xml:space="preserve" text-anchor="middle" x="64.5" y="-29.8" font-family="Inter,Helvetica Neue,Arial,sans-serif" font-size="10.00" fill="#166534">✓ satisfactory &#160;1.000</text>
<text xml:space="preserve" text-anchor="middle" x="64.5" y="-15.55" font-family="Inter,Helvetica Neue,Arial,sans-serif" font-size="10.00" fill="#166534">type&#45;check: ✓ (1 att.)</text>
</g>
<!-- node_31381b218b1349a8a840b8604c60477e&#45;&gt;node_ede623c5496e4c89af785942216953bc -->
<g id="edge1" class="edge">
<title>node_31381b218b1349a8a840b8604c60477e&#45;&gt;node_ede623c5496e4c89af785942216953bc</title>
<path fill="none" stroke="#22c55e" stroke-width="1.2" d="M64.5,-97.74C64.5,-88.89 64.5,-79.11 64.5,-69.86"/>
<polygon fill="#22c55e" stroke="#22c55e" stroke-width="1.2" points="64.5,-64.05 67.2,-70.05 64.6,-65.59 64.6,-70.05 64.5,-70.05 64.4,-70.05 64.4,-65.59 61.8,-70.05 64.5,-64.05"/>
</g>
<!-- node_0f41885a1976425aa139662e8e786608 -->
<g id="node3" class="node">
<title>node_0f41885a1976425aa139662e8e786608</title>
<path fill="#fef2f2" stroke="#ef4444" stroke-width="1.2" d="M254,-111.1C254,-111.1 149,-111.1 149,-111.1 143,-111.1 137,-105.1 137,-99.1 137,-99.1 137,-61 137,-61 137,-55 143,-49 149,-49 149,-49 254,-49 254,-49 260,-49 266,-55 266,-61 266,-61 266,-99.1 266,-99.1 266,-105.1 260,-111.1 254,-111.1"/>
<text xml:space="preserve" text-anchor="middle" x="201.5" y="-90.8" font-family="Inter,Helvetica Neue,Arial,sans-serif" font-size="10.00" fill="#991b1b">0f41..6608</text>
<text xml:space="preserve" text-anchor="middle" x="201.5" y="-78.8" font-family="Inter,Helvetica Neue,Arial,sans-serif" font-size="10.00" fill="#991b1b">✗ buggy &#160;0.000</text>
<text xml:space="preserve" text-anchor="middle" x="201.5" y="-64.55" font-family="Inter,Helvetica Neue,Arial,sans-serif" font-size="10.00" fill="#991b1b">type&#45;check: ✓ (1 att.)</text>
</g>
</g>
</svg>
