<?xml version="1.0" encoding="UTF-8" standalone="no"?>
<!DOCTYPE svg PUBLIC "-//W3C//DTD SVG 1.1//EN"
 "http://www.w3.org/Graphics/SVG/1.1/DTD/svg11.dtd">
<!-- Generated by graphviz version 16.0.0 (20260814.1018)
 -->
<!-- Title: tree Pages: 1 -->
<svg width="187pt" height="512pt"
 viewBox="0.00 0.00 187.00 512.00" xmlns="http://www.w3.org/2000/svg" xmlns:xlink="http://www.w3.org/1999/xlink">
<g id="graph0" class="graph" transform="scale(1 1) rotate(0) translate(28.8 483.3)">
<title>tree</title>
<polygon fill="#ffffff" stroke="none" points="-28.8,28.8 -28.8,-483.3 157.8,-483.3 157.8,28.8 -28.8,28.8"/>
<!-- node_3fabdc1c12684bad94c632375bb6354b -->
<g id="node1" class="node">
<title>node_3fabdc1c12684bad94c632375bb6354b</title>
<path fill="#fef2f2" stroke="#ef4444" stroke-width="1.2" d="M117,-454.5C117,-454.5 12,-454.5 12,-454.5 6,-454.5 0,-448.5 0,-442.5 0,-442.5 0,-404.4 0,-404.4 0,-398.4 6,-392.4 12,-392.4 12,-392.4 117,-392.4 117,-392.4 123,-392.4 129,-398.4 129,-404.4 129,-404.4 129,-442.5 129,-442.5 129,-448.5 123,-454.5 117,-454.5"/>
<text xml:space="preserve" text-anchor="middle" x="64.5" y="-434.2" font-family="Inter,Helvetica Neue,Arial,sans-serif" font-size="10.00" fill="#991b1b">3fab..354b</text>
<text xml:space="preserve" text-anchor="middle" x="64.5" y="-422.2" font-family="Inter,Helvetica Neue,Arial,sans-serif" font-size="10.00" fill="#991b1b">✗ buggy &#160;0.375</text>
<text xml:space="preserve" text-anchor="middle" x="64.5" y="-407.95" font-family="Inter,Helvetica Neue,Arial,sans-serif" font-size="10.00" fill="#991b1b">type&#45;check: ✓ (1 att.)</text>
</g>
<!-- node_0db4fb41b676498492609d3016f4f433 -->
<g id="node2" class="node">
<title>node_0db4fb41b676498492609d3016f4f433</title>
<path fill="#fef2f2" stroke="#ef4444" stroke-width="1.2" d="M117,-356.4C117,-356.4 12,-356.4 12,-356.4 6,-356.4 0,-350.4 0,-344.4 0,-344.4 0,-306.3 0,-306.3 0,-300.3 6,-294.3 12,-294.3 12,-294.3 117,-294.3 117,-294.3 123,-294.3 129,-300.3 129,-306.3 129,-306.3 129,-344.4 129,-344.4 129,-350.4 123,-356.4 117,-356.4"/>
<text xml:space="preserve" text-anchor="middle" x="64.5" y="-336.1" font-family="Inter,Helvetica Neue,Arial,sans-serif" font-size="10.00" fill="#991b1b">0db4..f433</text>
<text xml:space="preserve" text-anchor="middle" x="64.5" y="-324.1" font-family="Inter,Helvetica Neue,Arial,sans-serif" font-size="10.00" fill="#991b1b">✗ buggy &#160;0.375</text>
<text xml:space="preserve" text-anchor="middle" x="64.5" y="-309.85" font-family="Inter,Helvetica Neue,Arial,sans-serif" font-size="10.00" fill="#991b1b">type&#45;check: ✓ (1 att.)</text>
</g>
<!-- node_3fabdc1c12684bad94c632375bb6354b&#45;&gt;node_0db4fb41b676498492609d3016f4f433 -->
<g id="edge1" class="edge">
<title>node_3fabdc1c12684bad94c632375bb6354b&#45;&gt;node_0db4fb41b676498492609d3016f4f433</title>
<path fill="none" stroke="#ef4444" stroke-width="1.2" d="M64.5,-392.04C64.5,-383.19 64.5,-373.41 64.5,-364.16"/>
<polygon fill="#ef4444" stroke="#ef4444" stroke-width="1.2" points="64.5,-358.35 67.2,-364.35 64.6,-359.89 64.6,-364.35 64.5,-364.35 64.4,-364.35 64.4,-359.89 61.8,-364.35 64.5,-358.35"/>
</g>
<!-- node_ad6cf035e0914564883ffc3ee735446c -->
<g id="node3" class="node">
<title>node_ad6cf035e0914564883ffc3ee735446c</title>
<path fill="#fef2f2" stroke="#ef4444" stroke-width="1.2" d="M117,-258.3C117,-258.3 12,-258.3 12,-258.3 6,-258.3 0,-252.3 0,-246.3 0,-246.3 0,-208.2 0,-208.2 0,-202.2 6,-196.2 12,-196.2 12,-196.2 117,-196.2 117,-196.2 123,-196.2 129,-202.2 129,-208.2 129,-208.2 129,-246.3 129,-246.3 129,-252.3 123,-258.3 117,-258.3"/>
<text xml:space="preserve" text-anchor="middle" x="64.5" y="-238" font-family="Inter,Helvetica Neue,Arial,sans-serif" font-size="10.00" fill="#991b1b">ad6c..446c</text>
<text xml:space="preserve" text-anchor="middle" x="64.5" y="-226" font-family="Inter,Helvetica Neue,Arial,sans-serif" font-size="10.00" fill="#991b1b">✗ buggy &#160;0.375</text>
<text xml:space="preserve" text-anchor="middle" x="64.5" y="-211.75" font-family="Inter,Helvetica Neue,Arial,sans-serif" font-size="10.00" fill="#991b1b">type&#45;check: ✓ (1 att.)</text>
</g>
<!-- node_0db4fb41b676498492609d3016f4f433&#45;&gt;node_ad6cf035e0914564883ffc3ee735446c -->
<g id="edge2" class="edge">
<title>node_0db4fb41b676498492609d3016f4f433&#45;&gt;node_ad6cf035e0914564883ffc3ee735446c</title>
<path fill="none" stroke="#ef4444" stroke-width="1.2" d="M64.5,-293.94C64.5,-285.09 64.5,-275.31 64.5,-266.06"/>
<polygon fill="#ef4444" stroke="#ef4444" stroke-width="1.2" points="64.5,-260.25 67.2,-266.25 64.6,-261.79 64.6,-266.25 64.5,-266.25 64.4,-266.25 64.4,-261.79 61.8,-266.25 64.5,-260.25"/>
</g>
<!-- node_08054941d778476fa29a3eec5a5c43e0 -->
<g id="node4" class="node">
<title>node_08054941d778476fa29a3eec5a5c43e0</title>
<path fill="#fef2f2" stroke="#ef4444" stroke-width="1.2" d="M117,-160.2C117,-160.2 12,-160.2 12,-160.2 6,-160.2 0,-154.2 0,-148.2 0,-148.2 0,-110.1 0,-110.1 0,-104.1 6,-98.1 12,-98.1 12,-98.1 117,-98.1 117,-98.1 123,-98.1 129,-104.1 129,-110.1 129,-110.1 129,-148.2 129,-148.2 129,-154.2 123,-160.2 117,-160.2"/>
<text xml:space="preserve" text-anchor="middle" x="64.5" y="-139.9" font-family="Inter,Helvetica Neue,Arial,sans-serif" font-size="10.00" fill="#991b1b">0805..43e0</text>
<text xml:space="preserve" text-anchor="middle" x="64.5" y="-127.9" font-family="Inter,Helvetica Neue,Arial,sans-serif" font-size="10.00" fill="#991b1b">✗ buggy &#160;0.375</text>
<text xml:space="preserve" text-anchor="middle" x="64.5" y="-113.65" font-family="Inter,Helvetica Neue,Arial,sans-serif" font-size="10.00" fill="#991b1b">type&#45;check: ✓ (1 att.)</text>
</g>
<!-- node_ad6cf035e0914564883ffc3ee735446c&#45;&gt;node_08054941d778476fa29a3eec5a5c43e0 -->
<g id="edge3" class="edge">
<title>node_ad6cf035e0914564883ffc3ee735446c&#45;&gt;node_08054941d778476fa29a3eec5a5c43e0</title>
<path fill="none" stroke="#ef4444" stroke-width="1.2" d="M64.5,-195.84C64.5,-186.99 64.5,-177.21 64.5,-167.96"/>
<polygon fill="#ef4444" stroke="#ef4444" stroke-width="1.2" points="64.5,-162.15 67.2,-168.15 64.6,-163.69 64.6,-168.15 64.5,-168.15 64.4,-168.15 64.4,-163.69 61.8,-168.15 64.5,-162.15"/>
</g>
<!-- node_adfa9c7c39b24bc69836895f96d4365f -->
<g id="node5" class="node">
<title>node_adfa9c7c39b24bc69836895f96d4365f</title>
<path fill="#fef2f2" stroke="#ef4444" stroke-width="1.2" d="M117,-62.1C117,-62.1 12,-62.1 12,-62.1 6,-62.1 0,-56.1 0,-50.1 0,-50.1 0,-12 0,-12 0,-6 6,0 12,0 12,0 117,0 117,0 123,0 129,-6 129,-12 129,-12 129,-50.1 129,-50.1 129,-56.1 123,-62.1 117,-62.1"/>
<text xml:space="preserve" text-anchor="middle" x="64.5" y="-41.8" font-family="Inter,Helvetica Neue,Arial,sans-serif" font-size="10.00" fill="#991b1b">adfa..365f</text>
<text xml:space="preserve" text-anchor="middle" x="64.5" y="-29.8" font-family="Inter,Helvetica Neue,Arial,sans-serif" font-size="10.00" fill="#991b1b">✗ buggy &#160;0.375</text>
<text xml:space="preserve" text-anchor="middle" x="64.5" y="-15.55" font-family="Inter,Helvetica Neue,Arial,sans-serif" font-size="10.00" fill="#991b1b">type&#45;check: ✓ (1 att.)</text>
</g>
<!-- node_08054941d778476fa29a3eec5a5c43e0&#45;&gt;node_adfa9c7c39b24bc69836895f96d4365f -->
<g id="edge4" class="edge">
<title>node_08054941d778476fa29a3eec5a5c43e0&#45;&gt;node_adfa9c7c39b24bc69836895f96d4365f</title>
<path fill="none" stroke="#ef4444" stroke-width="1.2" d="M64.5,-97.74C64.5,-88.89 64.5,-79.11 64.5,-69.86"/>
<polygon fill="#ef4444" stroke="#ef4444" stroke-width="1.2" points="64.5,-64.05 67.2,-70.05 64.6,-65.59 64.6,-70.05 64.5,-70.05 64.4,-70.05 64.4,-65.59 61.8,-70.05 64.5,-64.05"/>
</g>
</g>
</svg>
